<svg width="27" height="27" viewBox="0 0 27 27" fill="none" xmlns="http://www.w3.org/2000/svg">
  <path d="M0.00448423 3.28589C0.00200766 1.49096 1.45507 0.033881 3.25 0.0314044L22.75 0.00449903C24.5449 0.00202245 26.002 1.45509 26.0045 3.25001L26.0314 22.75C26.0338 24.5449 24.5808 26.002 22.7859 26.0045L3.28587 26.0314C1.49095 26.0339 0.0338662 24.5808 0.0313896 22.7859L0.00448423 3.28589Z" fill="#0D99FF"/>
  <path d="M6.06426 4.9373C7.8683 5.11195 15.7299 5.98643 17.8861 8.13682C19.3326 9.57972 19.9589 11.8443 19.7017 13.979L21.6322 15.9188C22.263 16.5532 22.262 17.5791 21.6304 18.2127L18.1889 21.6647C17.5533 22.3021 16.5199 22.3013 15.8852 21.663L13.9382 19.7058C11.8214 19.9503 9.58301 19.3288 8.14953 17.8993C5.99368 15.7487 5.09715 7.89151 4.9174 6.08733C4.89386 5.84976 4.98044 5.6194 5.14895 5.45029L5.42786 5.16963C5.59645 5.00057 5.82662 4.91451 6.06426 4.9373ZM12.5967 11.4498C12.7304 11.4139 12.8705 11.3928 13.0156 11.3926C13.9129 11.3913 14.6414 12.118 14.6428 13.0153C14.644 13.9128 13.9175 14.6413 13.02 14.6426C12.1227 14.6437 11.394 13.9172 11.3928 13.0198C11.3926 12.8741 11.4131 12.7332 11.4489 12.5988L6.77543 7.94023C6.9163 8.97877 7.11448 10.2511 7.38292 11.5302C7.63252 12.7194 7.93385 13.8763 8.28691 14.8425C8.65672 15.8544 9.0184 16.4711 9.29735 16.7493C10.3135 17.7625 12.026 18.2912 13.7523 18.0917L14.5344 18.0008L15.0899 18.5587L17.0369 20.5159L17.0379 20.5169L20.4804 17.0649L18.55 15.1242L17.9945 14.5664L18.0882 13.785C18.2978 12.0446 17.7644 10.3104 16.7382 9.28684C16.4592 9.00874 15.842 8.6485 14.8296 8.28166C13.8624 7.93125 12.7039 7.63313 11.5139 7.38682C10.2347 7.12205 8.96286 6.92797 7.92424 6.79021L12.5967 11.4498Z" fill="white"/>
</svg>
